<svg xmlns="http://www.w3.org/2000/svg" version="1.1" xmlns:xlink="http://www.w3.org/1999/xlink" width="512" height="512" x="0" y="0" viewBox="0 0 512.682 512.682" style="enable-background:new 0 0 512 512" xml:space="preserve" class=""><g><path d="M512.682 64.178a7.5 7.5 0 0 0-7.5-7.5h-94.764a7.5 7.5 0 0 0-7.5 7.5v25.04c0 9.697 15 9.697 15 0v-17.54h79.764v71.499h-28.039a7.5 7.5 0 0 0-7.5 7.5v28.768h-44.225v-50.272c0-9.697-15-9.697-15 0v57.772a7.5 7.5 0 0 0 7.5 7.5h59.225a7.531 7.531 0 0 0 5.356-2.251l35.539-36.268a7.567 7.567 0 0 0 2.144-5.249zm-35.539 93.999h10.189l-10.189 10.398zM306.144 109.552c8.165 3.214 17.097 3.039 25.153-.484 16.576-7.249 24.234-26.611 17.071-43.163-3.467-8.012-9.85-14.186-17.973-17.384-8.163-3.213-17.095-3.042-25.154.483-16.575 7.249-24.233 26.612-17.071 43.163 3.467 8.012 9.85 14.186 17.974 17.385zm5.107-46.804c4.372-1.912 9.22-2.013 13.648-.27a17.478 17.478 0 0 1 9.703 9.384c3.89 8.99-.289 19.515-9.315 23.462-4.38 1.915-9.228 2.01-13.648.27a17.478 17.478 0 0 1-9.703-9.384c-3.89-8.989.289-19.514 9.315-23.462z" fill="#000000" opacity="1" data-original="#000000"></path><path d="M476.563 203.291H300.537c11.146-15.994 15.123-37.254 10.614-56.371l4.089-4.143a64.8 64.8 0 0 0 6.565-.211l9.105 8.596c2.576 2.12 5.294 2.592 8.153 1.417l16.967-7.42a7.5 7.5 0 0 0 4.495-6.9l-.048-12.592a64.886 64.886 0 0 0 4.657-4.711l12.478-.393a7.499 7.499 0 0 0 6.736-4.735l6.817-17.215a7.5 7.5 0 0 0-1.704-8.1l-8.142-8.034a61.79 61.79 0 0 0-.021-8.142l7.827-8.288a7.497 7.497 0 0 0 1.431-8.128l-7.324-16.926c-1.197-2.768-3.931-4.592-6.953-4.521l-11.334.106a61.535 61.535 0 0 0-5.886-5.539l-.297-11.471a7.5 7.5 0 0 0-4.764-6.791l-17.177-6.722a7.498 7.498 0 0 0-8.071 1.716l-8.798 8.914a64.49 64.49 0 0 0-6.564.211l-9.106-8.596a7.496 7.496 0 0 0-8.153-1.417l-16.967 7.419a7.5 7.5 0 0 0-4.495 6.9l.048 12.592a64.856 64.856 0 0 0-4.656 4.71l-12.479.393a7.499 7.499 0 0 0-6.736 4.735l-6.817 17.214a7.5 7.5 0 0 0 1.704 8.1l8.143 8.035a61.961 61.961 0 0 0 .02 8.142l-6.253 6.621c-59.623-5.396-99.128 62.423-65.208 111.543H39.756c-38.092 1.575-38.093 55.864 0 57.438h10.78l82.682 85.192c6.776 6.981 17.503-3.503 10.764-10.447L71.44 260.729h373.296l-88.252 89.886c-7.665-10.495-25.517-10.07-31.46 2.044l-24.976 51.066c-16.637-17.478-45.264-4.185-45.141 18.931h-26.31l-56.632-58.351c-6.753-6.959-17.518 3.488-10.764 10.446l56.723 58.445v33.922a7.5 7.5 0 0 0 3.717 6.476l34.416 20.107c6.448 20.97 35.834 24.673 47.335 6.02 8.808 7.844 20.051 12.467 31.922 12.467 17.372 0 34.744-.088 52.115-.026 9.288-.388 16.771-6.203 19.395-15.115 2.009-7.848 17.654-68.954 19.061-74.444 3.281-12.465-6.284-25.067-19.228-25.067-15.573.055-31.147.046-46.72.052v-29.083l.115-.114 105.704-107.662h10.807c38.101-1.578 38.085-55.868 0-57.438zM232.924 437.657h21.982v38.001l-21.982-12.843zm48.165 59.545c-6.166 0-11.183-5.016-11.183-11.182v-64.255c0-14.382 22.239-14.407 22.239-.147v64.521c.001 6.038-4.902 11.063-11.056 11.063zm125.568-84.666c3.76 0 5.167 3.202 4.695 6.346l-19.062 74.452c-.705 2.399-2.315 3.682-4.809 3.829-9.105-.032-44.48.026-52.168.026-11.367 0-20.382-6.539-28.043-14.242v-59.848l31.108-63.604c1.705-2.764 6.558-1.51 6.558 1.807v43.789a7.5 7.5 0 0 0 7.5 7.5c9.353 0 51.058-.055 54.221-.055zM229.779 172.675c-12.475-11.079-3.716-31.72 12.841-30.761 8.755.542 15.985 7.833 16.461 16.597.293 5.409-1.854 10.572-5.893 14.165-4.362 3.88-2.479 10.831 2.373 12.633 8.909 3.31 16.414 9.795 21.091 17.982H206.29a40.322 40.322 0 0 1 21.115-17.982c4.854-1.803 6.736-8.752 2.374-12.634zm39.349-85.831a47 47 0 0 1-.016-11.774 7.505 7.505 0 0 0-2.174-6.266L259.8 61.76l3.176-8.021 10.891-.343a7.502 7.502 0 0 0 5.626-2.817 49.77 49.77 0 0 1 7.472-7.545 7.502 7.502 0 0 0 2.764-5.844l-.042-11.114 7.908-3.458 8.023 7.574a7.498 7.498 0 0 0 6.198 1.972 49.49 49.49 0 0 1 10.574-.351c2.2.163 4.35-.646 5.895-2.211l7.672-7.774 7.94 3.107.261 10.049a7.497 7.497 0 0 0 3.091 5.875 46.446 46.446 0 0 1 8.546 8.026 7.527 7.527 0 0 0 5.855 2.727l9.794-.092 3.385 7.822-6.776 7.175a7.501 7.501 0 0 0-1.987 6.104c.499 3.894.505 7.854.016 11.772a7.5 7.5 0 0 0 2.174 6.267l7.138 7.044-3.176 8.021-10.89.343a7.5 7.5 0 0 0-5.625 2.817 49.884 49.884 0 0 1-7.474 7.546 7.502 7.502 0 0 0-2.764 5.844l.042 11.114-7.908 3.458-8.023-7.574a7.51 7.51 0 0 0-6.198-1.972 49.358 49.358 0 0 1-10.574.351c-2.749-.199-5.54 1.553-7.265 3.599-8.295-16.685-22.92-29.69-40.712-35.854 2.325-1.972 4.695-5.473 4.301-8.553zm-27.645 19.641c44.5-.401 71.963 50.802 47.176 87.584a55.033 55.033 0 0 0-18.782-18.48c3.045-5.361 4.526-11.535 4.183-17.89-.896-16.513-14.014-29.735-30.512-30.757-25.377-1.694-43.324 26.57-30.442 48.644a55.19 55.19 0 0 0-18.792 18.488c-24.801-36.793 2.681-87.993 47.169-87.589zm235.08 139.244H39.756c-18.202-.755-18.19-26.69 0-27.438h436.808c18.202.756 18.189 26.69-.001 27.438z" fill="#000000" opacity="1" data-original="#000000"></path><path d="m47.949 170.198 27.182 20.235c4.901 3.648 11.979.022 11.979-6.016v-14.219h13.579c13.944 0 25.288-11.345 25.288-25.29v-19.543c3.328.484 6.664.704 10.01.661 83.107-4.547 81.456-123.198-1.623-125.533-42.034-.006-72.551 43.63-58.472 83.16H25.288C11.344 83.653 0 94.998 0 108.943v35.966c0 13.945 11.344 25.29 25.288 25.29h22.661zm86.608-154.706c26.205-.363 47.942 20.804 48.264 47.151.34 26.339-20.756 48.044-47.027 48.384a47.393 47.393 0 0 1-14.526-2.042 7.444 7.444 0 0 0-1.049-.333c-6.785-2.243-13.023-6.029-18.291-11.174a48.03 48.03 0 0 1-7.68-9.717 7.27 7.27 0 0 0-.444-.759c-3.991-6.966-6.168-14.872-6.275-23.126-.341-26.339 20.756-48.044 47.028-48.384zM15 144.908v-35.966c0-5.674 4.615-10.29 10.288-10.29h58.124c6.708 9.874 16.651 18.02 27.565 22.543v23.713c0 5.674-4.615 10.29-10.288 10.29h-21.08a7.5 7.5 0 0 0-7.5 7.5v6.786l-17.196-12.802a7.503 7.503 0 0 0-4.479-1.484H25.288c-5.673 0-10.288-4.616-10.288-10.29z" fill="#000000" opacity="1" data-original="#000000"></path><path d="m135.13 96.933.48-.003c9.671-.125 18.718-4.021 25.474-10.969 6.76-6.952-3.996-17.411-10.754-10.457-3.959 4.071-9.255 6.354-14.914 6.427-5.634.088-11.013-2.071-15.075-6.039-6.939-6.775-17.417 3.956-10.48 10.731 6.819 6.66 15.776 10.31 25.269 10.31zM116.89 58.714c9.652 0 9.668-15 0-15-9.652 0-9.668 15 0 15zM153.141 58.245c9.652 0 9.668-15 0-15-9.652 0-9.668 15 0 15z" fill="#000000" opacity="1" data-original="#000000"></path></g></svg>