<svg xmlns="http://www.w3.org/2000/svg" version="1.1" xmlns:xlink="http://www.w3.org/1999/xlink" width="512" height="512" x="0" y="0" viewBox="0 0 25 25" style="enable-background:new 0 0 512 512" xml:space="preserve" class=""><g><g data-name="Fast Internet"><path d="M9.61 18.309H3.19a1.235 1.235 0 0 1-1.022-.487 1.273 1.273 0 0 1-.143-1.158l1.21-3.652a.5.5 0 1 1 .95.314l-1.21 3.652a.3.3 0 0 0 0 .257.26.26 0 0 0 .212.074H9.61a.5.5 0 0 1 0 1zM19.93 12.769a.51.51 0 0 1-.157-.025.5.5 0 0 1-.317-.632l2.569-7.79c.077-.234-.007-.333-.215-.333l-13.891-.01a1.01 1.01 0 0 0-.864.646l-.99 3.01a.5.5 0 1 1-.95-.312l.99-3.01A2.017 2.017 0 0 1 7.92 2.979l13.891.01a1.237 1.237 0 0 1 1.021.487 1.275 1.275 0 0 1 .143 1.159l-2.57 7.791a.5.5 0 0 1-.475.343zM4.37 11.669a.5.5 0 0 1-.474-.657l.56-1.69a.5.5 0 1 1 .949.314l-.56 1.69a.5.5 0 0 1-.475.343z" fill="#000000" opacity="1" data-original="#000000" class=""></path><path d="M21.808 7.065 5.892 7.057a.5.5 0 0 1 0-1l15.915.008a.5.5 0 0 1 0 1z" fill="#000000" opacity="1" data-original="#000000" class=""></path><ellipse cx="17.429" cy="5.044" rx=".586" ry=".423" transform="rotate(-38.14 17.418 5.04)" fill="#000000" opacity="1" data-original="#000000" class=""></ellipse><ellipse cx="17.429" cy="5.044" rx=".586" ry=".423" transform="rotate(-38.14 17.418 5.04)" fill="#000000" opacity="1" data-original="#000000" class=""></ellipse><ellipse cx="18.98" cy="5.045" rx=".586" ry=".423" transform="rotate(-38.14 18.968 5.041)" fill="#000000" opacity="1" data-original="#000000" class=""></ellipse><ellipse cx="20.531" cy="5.045" rx=".586" ry=".423" transform="rotate(-38.14 20.517 5.043)" fill="#000000" opacity="1" data-original="#000000" class=""></ellipse><path d="M22.166 20.146H9.983a.5.5 0 0 1-.469-.327 6.76 6.76 0 0 1-.414-2.352 6.977 6.977 0 1 1 13.954 0 6.787 6.787 0 0 1-.416 2.352.5.5 0 0 1-.472.327zm-11.824-1h11.464a5.805 5.805 0 0 0 .245-1.679 5.977 5.977 0 1 0-11.954 0 5.835 5.835 0 0 0 .245 1.679z" fill="#000000" opacity="1" data-original="#000000" class=""></path><path d="M16.074 12.286a.5.5 0 0 1-.5-.5v-.8a.5.5 0 0 1 1 0v.8a.5.5 0 0 1-.5.5zM20.089 13.949a.5.5 0 0 1-.354-.853l.564-.563a.5.5 0 0 1 .707.707l-.564.563a.5.5 0 0 1-.353.146zM22.549 17.965h-.8a.5.5 0 0 1 0-1h.8a.5.5 0 0 1 0 1zM10.4 17.965h-.8a.5.5 0 0 1 0-1h.8a.5.5 0 0 1 0 1zM12.058 13.949a.5.5 0 0 1-.353-.146l-.563-.563a.5.5 0 0 1 .707-.707l.563.563a.5.5 0 0 1-.354.853zM16.074 18.761a1.3 1.3 0 1 1 1.3-1.3 1.3 1.3 0 0 1-1.3 1.3zm0-1.593a.3.3 0 1 0 .3.3.3.3 0 0 0-.3-.3z" fill="#000000" opacity="1" data-original="#000000" class=""></path><path d="M16.743 17.546a.5.5 0 0 1-.266-.924l2.9-1.82a.5.5 0 1 1 .532.848l-2.905 1.82a.507.507 0 0 1-.261.076zM7.344 13.667H2.5a.5.5 0 0 1 0-1h4.844a.5.5 0 0 1 0 1zM11.776 9.979H2.449a.5.5 0 1 1 0-1h9.327a.5.5 0 0 1 0 1zM7.344 20.146H3.5a.5.5 0 0 1 0-1h3.844a.5.5 0 1 1 0 1zM15.277 22.021h-.767a.5.5 0 1 1 0-1h.767a.5.5 0 1 1 0 1zM12.747 22.021H8.758a.5.5 0 0 1 0-1h3.989a.5.5 0 0 1 0 1z" fill="#000000" opacity="1" data-original="#000000" class=""></path></g></g></svg>