<svg xmlns="http://www.w3.org/2000/svg" version="1.1" xmlns:xlink="http://www.w3.org/1999/xlink" width="512" height="512" x="0" y="0" viewBox="0 0 64 64" style="enable-background:new 0 0 512 512" xml:space="preserve" class=""><g><g data-name="Outline"><path d="M61.5 34.5A11.5 11.5 0 1 0 47 45.589v4.689A1.993 1.993 0 0 0 46 52v7a3 3 0 0 0 3 3h2a3 3 0 0 0 3-3v-7a1.993 1.993 0 0 0-1-1.722v-4.689A11.509 11.509 0 0 0 61.5 34.5Zm-21 0A9.5 9.5 0 1 1 50 44a9.511 9.511 0 0 1-9.5-9.5ZM52 59a1 1 0 0 1-1 1h-2a1 1 0 0 1-1-1v-7h4Zm-1-9h-2v-4.051a10.281 10.281 0 0 0 2 0Z" fill="#000000" opacity="1" data-original="#000000" class=""></path><path d="M57.5 34.5A7.5 7.5 0 1 0 50 42a7.508 7.508 0 0 0 7.5-7.5Zm-13 0A5.5 5.5 0 1 1 50 40a5.506 5.506 0 0 1-5.5-5.5ZM60.961 3.3l-7.145-1.415A2 2 0 0 0 51.7 4.847l.68 1.177-13.532 5.727-3.27-6.54a3.981 3.981 0 0 0-5.194-1.869L3.833 14.563A2.993 2.993 0 0 0 2 17.326v2.615a3 3 0 0 0 4.2 2.748l23.934-10.478 3.288 6.578a4.028 4.028 0 0 0 5.3 1.822l17.188-8.467.583 1.01a2 2 0 0 0 3.625-.355l2.349-6.894A2 2 0 0 0 60.961 3.3Zm-2.736 8.856-1.051-1.821a1 1 0 0 0-1.308-.4L37.852 18.81a2.013 2.013 0 0 1-2.641-.915L31.5 10.467A1 1 0 0 0 30.2 10L5.4 20.857a1 1 0 0 1-1.4-.916v-2.615a1 1 0 0 1 .611-.921L31.184 5.174a1.994 1.994 0 0 1 2.605.931l3.69 7.38a1 1 0 0 0 1.284.474L54.2 7.425A1.006 1.006 0 0 0 54.674 6l-1.245-2.153 7.145 1.413Z" fill="#000000" opacity="1" data-original="#000000" class=""></path><path d="M11.028 40h-2.55a.4.4 0 0 1-.4-.4 3 3 0 1 0-6 0 6.407 6.407 0 0 0 6.4 6.4h2.55a7.25 7.25 0 0 0 0-14.5h-1.7a1.25 1.25 0 0 1 0-2.5h2.55a.4.4 0 0 1 .4.4 3 3 0 1 0 6 0 6.407 6.407 0 0 0-6.4-6.4h-2.55a7.25 7.25 0 0 0 0 14.5h1.7a1.25 1.25 0 0 1 0 2.5Zm0-4.5h-1.7a5.25 5.25 0 1 1 0-10.5h2.55a4.405 4.405 0 0 1 4.4 4.4 1 1 0 0 1-2 0 2.4 2.4 0 0 0-2.4-2.4h-2.55a3.25 3.25 0 1 0 0 6.5h1.7a5.25 5.25 0 0 1 0 10.5h-2.55a4.4 4.4 0 0 1-4.4-4.4 1 1 0 0 1 2 0 2.4 2.4 0 0 0 2.4 2.4h2.55a3.25 3.25 0 0 0 0-6.5ZM26.39 29.178h6.442a3.09 3.09 0 0 0 0-6.178H26.39a6.348 6.348 0 0 0-6.222 6.454v10.092A6.348 6.348 0 0 0 26.39 46h6.442a3.09 3.09 0 0 0 0-6.178H26.39a.257.257 0 0 1-.222-.276v-1.957h6.664a3.09 3.09 0 0 0 0-6.178h-6.664v-1.957a.257.257 0 0 1 .222-.276Zm-1.222 4.233h7.664a1.093 1.093 0 0 1 0 2.178h-7.664a1 1 0 0 0-1 1v2.957a2.252 2.252 0 0 0 2.222 2.276h6.442a1.093 1.093 0 0 1 0 2.178H26.39a4.348 4.348 0 0 1-4.222-4.454V29.454A4.348 4.348 0 0 1 26.39 25h6.442a1.093 1.093 0 0 1 0 2.178H26.39a2.252 2.252 0 0 0-2.222 2.276v2.957a1 1 0 0 0 1 1Z" fill="#000000" opacity="1" data-original="#000000" class=""></path></g></g></svg>