<svg viewBox="18.7035 25.1827 437.3235 437.9441" width="437.3235" height="437.9441" xmlns="http://www.w3.org/2000/svg">
  <g transform="matrix(1, 0, 0, 1, 0, 7.105427357601002e-15)">
    <path d="M 120.509 77.06 L 120.553 43.504 C 120.573 36.98 116.643 31.091 110.609 28.604 C 104.587 26.092 97.643 27.47 93.037 32.092 L 20.587 104.524 C 18.081 107.029 18.081 111.091 20.587 113.596 C 23.093 116.101 27.155 116.101 29.661 113.596 L 102.112 41.165 C 103.512 39.765 105.08 40.203 105.691 40.456 C 106.301 40.708 107.72 41.51 107.718 43.489 L 107.673 77.045 C 107.667 84.334 104.827 91.182 99.678 96.329 L 20.587 175.402 C 17.094 178.894 18.692 184.857 23.464 186.135 C 24.005 186.28 24.563 186.353 25.124 186.353 C 26.826 186.356 28.459 185.679 29.661 184.474 L 108.754 105.402 C 116.324 97.835 120.498 87.769 120.509 77.06 L 120.509 77.06 Z M 445.047 370.231 L 388.857 426.406 C 387.455 427.807 385.884 427.369 385.274 427.117 C 384.663 426.864 383.243 426.061 383.244 424.08 L 383.288 390.518 C 383.295 383.242 386.136 376.394 391.285 371.24 L 454.123 308.419 C 457.601 304.911 455.976 298.955 451.199 297.698 C 449.001 297.12 446.661 297.747 445.047 299.346 L 382.207 362.171 C 374.638 369.749 370.464 379.812 370.454 390.505 L 370.411 424.067 C 370.392 430.593 374.322 436.483 380.358 438.971 C 386.382 441.481 393.326 440.102 397.933 435.481 L 454.124 379.306 C 456.63 376.801 456.63 372.739 454.124 370.234 C 451.619 367.726 447.554 367.725 445.047 370.231 L 445.047 370.231 Z M 101.349 327.275 C 98.843 324.77 94.78 324.77 92.274 327.275 L 66.34 353.202 C 64.943 354.596 63.379 354.167 62.77 353.917 C 62.162 353.667 60.746 352.873 60.734 350.9 L 60.017 227.771 C 59.975 220.524 62.89 213.429 68.016 208.305 L 235.202 41.163 C 236.596 39.768 238.161 40.197 238.771 40.448 C 239.38 40.698 240.795 41.492 240.807 43.465 L 241.525 166.594 C 241.568 173.84 238.652 180.935 233.525 186.06 L 113.44 306.114 C 110.935 308.62 110.935 312.681 113.44 315.187 C 115.946 317.692 120.009 317.692 122.515 315.187 L 242.6 195.133 C 250.135 187.601 254.42 177.171 254.358 166.519 L 253.641 43.391 C 253.603 36.771 249.773 31.095 243.648 28.58 C 237.526 26.065 230.809 27.41 226.126 32.091 L 58.941 199.232 C 51.406 206.763 47.121 217.193 47.183 227.846 L 47.901 350.974 C 47.939 357.594 51.769 363.27 57.894 365.786 C 59.867 366.604 61.982 367.028 64.118 367.034 C 68.269 367.034 72.294 365.395 75.415 362.275 L 101.349 336.349 C 103.855 333.843 103.855 329.781 101.349 327.275 L 101.349 327.275 Z M 376.058 234.701 C 376.058 231.158 373.186 228.285 369.641 228.285 C 366.096 228.285 363.224 231.158 363.224 234.701 L 363.224 282.308 C 363.224 285.197 362.05 288.027 360.004 290.073 L 310.278 339.794 C 309.075 340.997 308.399 342.629 308.399 344.33 L 308.399 389.05 C 308.399 391.981 307.258 394.736 305.184 396.809 L 252.255 449.724 L 252.255 424.708 C 252.255 420.809 253.773 417.143 256.532 414.387 L 284.55 386.376 C 285.753 385.173 286.429 383.541 286.429 381.84 L 286.429 337.12 C 286.435 334.211 287.589 331.422 289.639 329.357 L 339.374 279.645 C 340.577 278.441 341.254 276.809 341.254 275.108 L 341.254 227.5 C 341.254 224.569 342.399 221.806 344.473 219.728 L 394.199 170.015 C 395.402 168.812 396.078 167.18 396.078 165.479 L 396.078 117.871 C 396.078 114.984 397.251 112.154 399.298 110.108 L 454.123 55.289 C 456.629 52.784 456.629 48.721 454.122 46.217 C 451.615 43.712 447.554 43.711 445.047 46.218 L 390.222 101.036 C 385.787 105.471 383.244 111.607 383.244 117.872 L 383.244 162.823 L 335.392 210.662 C 330.895 215.169 328.42 221.15 328.42 227.502 L 328.42 272.452 L 280.565 320.286 C 276.07 324.779 273.595 330.758 273.595 337.122 L 273.595 379.185 L 247.455 405.316 C 242.273 410.497 239.42 417.384 239.42 424.711 L 239.42 450.686 C 239.42 455.733 242.433 460.243 247.098 462.174 C 251.745 464.108 257.1 463.043 260.651 459.478 L 314.259 405.884 C 318.756 401.388 321.233 395.411 321.233 389.053 L 321.233 346.99 L 369.079 299.148 C 373.514 294.714 376.057 288.578 376.057 282.311 L 376.057 234.701 L 376.058 234.701 Z" opacity="1" data-original="#000000" class="" style="fill: rgb(217, 70, 69);"/>
    <path d="M 445.048 95.43 L 419.929 120.534 C 418.725 121.738 418.049 123.37 418.049 125.071 L 418.049 172.679 C 418.049 175.616 416.907 178.378 414.839 180.45 L 386.322 208.954 C 383.815 211.459 383.815 215.521 386.321 218.026 C 387.524 219.232 389.157 219.908 390.86 219.906 C 392.562 219.908 394.195 219.232 395.397 218.027 L 423.92 189.517 C 428.411 185.016 430.884 179.035 430.884 172.677 L 430.884 127.727 L 454.124 104.502 C 457.632 101.025 456.06 95.056 451.294 93.757 C 449.062 93.149 446.676 93.788 445.048 95.43 L 445.048 95.43 Z M 223.86 315.878 L 195.642 315.878 C 187.583 315.878 181.027 322.433 181.027 330.49 L 181.027 360.481 L 151.027 360.481 C 142.968 360.481 136.411 367.036 136.411 375.093 L 136.411 405.085 L 106.412 405.085 C 98.353 405.085 91.796 411.639 91.796 419.697 L 91.796 447.907 C 91.796 455.964 98.353 462.519 106.412 462.519 L 134.63 462.519 C 142.689 462.519 149.246 455.964 149.246 447.907 L 149.246 417.916 L 179.245 417.916 C 187.304 417.916 193.861 411.361 193.861 403.304 L 193.861 373.312 L 223.86 373.312 C 231.919 373.312 238.476 366.757 238.476 358.7 L 238.476 330.49 C 238.476 322.432 231.919 315.878 223.86 315.878 L 223.86 315.878 Z M 136.411 447.906 C 136.411 448.889 135.613 449.686 134.63 449.687 L 106.412 449.687 C 105.429 449.686 104.632 448.889 104.631 447.906 L 104.631 419.696 C 104.631 418.714 105.43 417.915 106.412 417.915 L 136.411 417.915 L 136.411 447.906 Z M 181.027 403.303 C 181.026 404.286 180.229 405.083 179.245 405.084 L 149.246 405.084 L 149.246 375.092 C 149.246 374.11 150.045 373.311 151.027 373.311 L 181.027 373.311 L 181.027 403.303 Z M 225.641 358.7 C 225.64 359.683 224.843 360.48 223.859 360.481 L 193.86 360.481 L 193.86 330.49 C 193.86 329.508 194.659 328.709 195.642 328.709 L 223.859 328.709 C 224.842 328.709 225.641 329.508 225.641 330.49 L 225.641 358.7 Z M 296.601 110.4 C 298.303 110.403 299.937 109.726 301.139 108.521 L 373.565 36.115 C 377.042 32.607 375.418 26.651 370.64 25.394 C 368.443 24.816 366.103 25.443 364.489 27.042 L 292.063 99.449 C 289.558 101.954 289.558 106.016 292.063 108.521 C 293.265 109.726 294.898 110.403 296.601 110.4 Z M 205.214 281.822 C 206.466 283.075 208.109 283.702 209.751 283.702 C 211.393 283.702 213.036 283.076 214.288 281.822 L 289.065 207.066 C 295.893 200.239 299.655 191.162 299.655 181.507 L 299.655 160.322 C 299.655 156.779 296.782 153.906 293.237 153.906 C 289.692 153.906 286.82 156.779 286.82 160.322 L 286.82 181.507 C 286.82 187.735 284.394 193.59 279.99 197.994 L 205.214 272.75 C 202.708 275.255 202.708 279.317 205.214 281.822 Z" opacity="1" data-original="#000000" class="" style="fill: rgb(29, 29, 29);"/>
  </g>
</svg>