<?xml version="1.0" encoding="utf-8"?>
<!-- Generator: Adobe Illustrator 27.0.0, SVG Export Plug-In . SVG Version: 6.00 Build 0)  -->
<svg version="1.1" id="Layer_1" xmlns="http://www.w3.org/2000/svg" xmlns:xlink="http://www.w3.org/1999/xlink" x="0px" y="0px"
	 viewBox="0 0 512 512" style="enable-background:new 0 0 512 512;" xml:space="preserve">
<style type="text/css">
	.st0{fill-rule:evenodd;clip-rule:evenodd;}
</style>
<g>
	<g>
		<g>
			<path class="st0" d="M252.1,33c2.4-1.4,5.4-1.4,7.8,0l192,108c2.5,1.4,4.1,4.1,4.1,7v216c0,2.9-1.6,5.6-4.1,7l-192,108
				c-2.4,1.4-5.4,1.4-7.8,0l-192-108c-2.5-1.4-4.1-4.1-4.1-7V148c0-2.9,1.6-5.6,4.1-7L252.1,33z M72,152.7v206.6l183.7,103.3
				l160.3-103V152.4l-160.3-103L72,152.7z"/>
		</g>
	</g>
	<g>
		<path d="M348.9,248.5l-69.3-69.3c-2-2-4.6-3.1-7.4-3.1c-2.8,0-5.5,1.1-7.4,3.1l-6.3,6.3c-2,2-3.1,4.6-3.1,7.4
			c0,2.8,1.1,5.5,3.1,7.5l40.5,40.5H170.4c-5.8,0-10.4,4.5-10.4,10.3v8.9c0,5.8,4.6,10.8,10.4,10.8h129l-40.9,40.8
			c-2,2-3.1,4.5-3.1,7.4c0,2.8,1.1,5.4,3.1,7.4l6.3,6.3c2,2,4.6,3.1,7.4,3.1c2.8,0,5.5-1.1,7.4-3.1l69.3-69.3c2-2,3.1-4.6,3.1-7.5
			C352,253.2,350.9,250.5,348.9,248.5L348.9,248.5z"/>
	</g>
</g>
</svg>
