<?xml version="1.0" encoding="utf-8"?>
<!-- Generator: Adobe Illustrator 27.0.0, SVG Export Plug-In . SVG Version: 6.00 Build 0)  -->
<svg version="1.1" id="Layer_1" xmlns="http://www.w3.org/2000/svg" xmlns:xlink="http://www.w3.org/1999/xlink" x="0px" y="0px"
	 viewBox="0 0 512 512" style="enable-background:new 0 0 512 512;" xml:space="preserve">
<style type="text/css">
	.st0{fill-rule:evenodd;clip-rule:evenodd;}
</style>
<g>
	<g>
		<path class="st0" d="M349.5,170.2c3,2.8,3.4,7.4,0.9,10.6l-119.9,160c-2.7,3.5-7.7,4.3-11.2,1.6c-0.8-0.6-1.5-1.3-2-2.2
			l-56.1-90.9c-2.3-3.8-1.2-8.7,2.6-11c2.5-1.5,5.6-1.6,8.2-0.1l51.2,29.6l115.6-97.9C341.9,167.3,346.5,167.4,349.5,170.2
			L349.5,170.2z"/>
		<path class="st0" d="M252.1,33c2.4-1.4,5.4-1.4,7.8,0l192,108c2.5,1.4,4.1,4.1,4.1,7v216c0,2.9-1.6,5.6-4.1,7l-192,108
			c-2.4,1.4-5.4,1.4-7.8,0l-192-108c-2.5-1.4-4.1-4.1-4.1-7V148c0-2.9,1.6-5.6,4.1-7L252.1,33z M72,152.7v206.6l183.7,103.3
			l160.3-103V152.4l-160.3-103L72,152.7z"/>
	</g>
</g>
</svg>
