<svg xmlns="http://www.w3.org/2000/svg" version="1.1" xmlns:xlink="http://www.w3.org/1999/xlink" width="512" height="512" x="0" y="0" viewBox="0 0 32 32" style="enable-background:new 0 0 512 512" xml:space="preserve" class=""><g><g fill="#000"><path d="M8 4a1 1 0 0 0 0 2h1a1 1 0 0 0 0-2zM14.606 12.553a1 1 0 1 1 1.788.894l-3 6a1 1 0 1 1-1.788-.894zM10.957 13.043a1 1 0 0 1 0 1.414L9.414 16l1.543 1.543a1 1 0 0 1-1.414 1.414l-2.25-2.25a1 1 0 0 1 0-1.414l2.25-2.25a1 1 0 0 1 1.414 0zM17.043 14.457a1 1 0 0 1 1.414-1.414l2.25 2.25a1 1 0 0 1 0 1.414l-2.25 2.25a1 1 0 0 1-1.414-1.414L18.586 16z" fill="#ffffff" opacity="1" data-original="#000000" class=""></path><path fill-rule="evenodd" d="M4 4a3 3 0 0 1 3-3h14a3 3 0 0 1 3 3v1h1a3 3 0 0 1 3 3v18a3 3 0 0 1-3 3H11a3 3 0 0 1-3-3v-1H7a3 3 0 0 1-3-3zm20 3h1a1 1 0 0 1 1 1v18a1 1 0 0 1-1 1H11a1 1 0 0 1-1-1v-1h11a3 3 0 0 0 3-3zm-2-3v3H6V4a1 1 0 0 1 1-1h14a1 1 0 0 1 1 1zm0 5H6v13a1 1 0 0 0 1 1h14a1 1 0 0 0 1-1z" clip-rule="evenodd" fill="#ffffff" opacity="1" data-original="#000000" class=""></path></g></g></svg>