<?xml version="1.0" encoding="UTF-8"?>
<svg id="Layer_2" data-name="Layer 2" xmlns="http://www.w3.org/2000/svg" viewBox="0 0 3341.96 563.2">
  <defs>
    <style>
      .cls-1 {
        fill: #231f20;
      }
    </style>
  </defs>
  <g id="Layer_1-2" data-name="Layer 1">
    <g>
      <g>
        <path class="cls-1" d="M0,.01H215.13c5.18,30.42,7.92,60.85,15.74,89.91,27.08,100.62,89.23,173.21,180.98,221.8,82.73,43.81,133.26,112.14,150.56,204.4,2.83,15.08,3.78,30.52,5.74,46.98h-217.36c-1.24-39.03-6.72-77.24-19.97-114-32.01-88.77-90.56-153.96-174.11-197.53C73.51,208.16,23.27,139.8,5.94,47.56,3.05,32.18,2.01,16.46,0,.01Z"/>
        <path class="cls-1" d="M285.23,.08h280.93V280.54C418.11,287.98,279.16,153.03,285.23,.08Z"/>
        <path class="cls-1" d="M2.33,281.67c162.29-.05,284.02,135.48,281.41,281.47H2.33V281.67Z"/>
      </g>
      <g>
        <path class="cls-1" d="M1127.58,375.2c0,104-70.4,188-243.2,188-143.2,0-230.4-80-230.4-80l56.8-122.4c80,61.6,173.6,61.6,173.6,61.6,42.4,1.6,89.6-3.2,89.6-32.8,0-23.2-28-28-98.4-39.2-146.4-23.2-208.8-83.2-208.8-176S739.57,0,898.78,0c0,0,130.4,0,203.2,64l-60.8,115.2s-49.6-38.4-156.8-38.4c-50.4,0-64,11.2-64,25.6,0,17.6,13.6,25.6,70.4,32.8,105.6,13.6,236.8,40,236.8,176Z"/>
        <path class="cls-1" d="M1729.18,550.4h-180.8l-107.2-169.6-107.2,169.6h-180.8l182.4-281.6L1166.77,12.8h180.8l93.6,150.4L1534.78,12.8h180.8l-168.8,256,182.4,281.6Z"/>
        <path class="cls-1" d="M1754.77,550.4l224-396.8h-211.2V12.8h460.8l-224,396.8h211.2v140.8h-460.8Z"/>
        <path class="cls-1" d="M2829.97,550.4h-156l-34.4-89.6h-208l-34.4,89.6h-156L2463.57,12.8h144l222.4,537.6Zm-235.2-204.8l-59.2-153.6-59.2,153.6h118.4Z"/>
        <path class="cls-1" d="M3341.96,550.4h-179.2l-111.2-166.4h-29.6v166.4h-153.6V12.8h243.2c140,0,204.8,75.2,204.8,179.2,0,79.2-38.4,148.8-106.4,177.6l132,180.8Zm-179.2-352c0-39.2-29.6-57.6-65.6-57.6h-75.2v115.2h75.2c36,0,65.6-17.6,65.6-57.6Z"/>
      </g>
    </g>
  </g>
</svg>