<svg xmlns="http://www.w3.org/2000/svg" viewBox="0 0 1014.6 1005.64" fill="#da4645" xmlns:v="https://vecta.io/nano"><path d="M0 0h384.18c9.24 54.33 14.14 108.67 28.11 160.56 48.36 179.68 159.34 309.31 323.19 396.09 147.73 78.24 237.98 200.26 268.87 365.01 5.05 26.93 6.75 54.49 10.25 83.89H626.45c-2.22-69.7-12-137.94-35.67-203.59-57.16-158.52-161.71-274.94-310.92-352.76C131.27 371.71 41.55 249.63 10.61 84.92 5.46 57.45 3.58 29.37 0 0zm509.37.13h501.68v500.84C746.66 514.25 498.53 273.25 509.37.13zM4.16 502.99c289.81-.08 507.2 241.93 502.55 502.65H4.16V502.99z"/></svg>