<svg xmlns="http://www.w3.org/2000/svg" version="1.1" xmlns:xlink="http://www.w3.org/1999/xlink" width="512" height="512" x="0" y="0" viewBox="0 0 32 32" style="enable-background:new 0 0 512 512" xml:space="preserve" class=""><g><path d="M25 2H7a5 5 0 0 0-5 5v18a5 5 0 0 0 5 5h18a5 5 0 0 0 5-5V7a5 5 0 0 0-5-5zM9.617 16.868a.848.848 0 0 1 .237-.46l5.188-5.188 3.375 3.375-5.188 5.188a.848.848 0 0 1-.46.237l-2.612.441a.851.851 0 0 1-.981-.981zm8.676 7.786H9.366a.9.9 0 0 1 0-1.8h8.927a.9.9 0 0 1 0 1.8zm1.398-11.332-3.375-3.374 1.003-1.003a2.386 2.386 0 1 1 3.375 3.375zm3.145 11.332h-.938a.9.9 0 0 1 0-1.8h.938a.9.9 0 0 1 0 1.8z" fill="#1d1d1d" opacity="1" data-original="#000000" class=""></path></g></svg>