<svg xmlns="http://www.w3.org/2000/svg" version="1.1" xmlns:xlink="http://www.w3.org/1999/xlink" width="512" height="512" x="0" y="0" viewBox="0 0 32 32" style="enable-background:new 0 0 512 512" xml:space="preserve" class=""><g><path fill="#1d1d1d" d="M19.5 10.5a3.5 3.5 0 0 0-7 0v.06a1 1 0 0 0 1 1 1 1 0 0 0 1-1A1.5 1.5 0 1 1 16 12a1 1 0 0 0 0 2 1.5 1.5 0 1 1-1.5 1.5v-.06a1 1 0 0 0-1-1 1 1 0 0 0-1 1A3.5 3.5 0 1 0 18.44 13a3.5 3.5 0 0 0 1.06-2.5z" opacity="1" data-original="#011839" class=""></path><path fill="#1d1d1d" d="M16 1a12 12 0 1 0 12 12A12 12 0 0 0 16 1zm0 22a10 10 0 1 1 10-10 10 10 0 0 1-10 10z" opacity="1" data-original="#011839" class=""></path><g fill="#7738c8"><path d="M7.5 30a1 1 0 0 0 1.37.93L15 28.48V27a13.91 13.91 0 0 1-7.5-2.9zM17 27v1.53l6.13 2.45a.94.94 0 0 0 .37.07 1 1 0 0 0 1-1V24.1A13.91 13.91 0 0 1 17 27z" fill="#1d1d1d" opacity="1" data-original="#7738c8" class=""></path></g></g></svg>