<svg xmlns="http://www.w3.org/2000/svg" version="1.1" xmlns:xlink="http://www.w3.org/1999/xlink" width="512" height="512" x="0" y="0" viewBox="0 0 32 32" style="enable-background:new 0 0 512 512" xml:space="preserve" class=""><g><path fill="#1d1d1d" d="M16 1a12 12 0 1 0 12 12A12 12 0 0 0 16 1zm0 22a10 10 0 1 1 10-10 10 10 0 0 1-10 10z" opacity="1" data-original="#011839" class=""></path><path fill="#1d1d1d" d="M19.12 17h-3.56l2-2a6.06 6.06 0 0 0 1.74-4.27A3.67 3.67 0 0 0 15.65 7h-.11a3.67 3.67 0 0 0-3.66 3.69 1 1 0 0 0 2 0A1.68 1.68 0 0 1 15.54 9h.11a1.68 1.68 0 0 1 1.66 1.69 4.05 4.05 0 0 1-1.17 2.87l-3.68 3.74a1 1 0 0 0 .71 1.7h6a1 1 0 1 0 0-2z" opacity="1" data-original="#011839" class=""></path><g fill="#7738c8"><path d="M7.5 30a1 1 0 0 0 1.37.93L15 28.48V27a13.91 13.91 0 0 1-7.5-2.9zM17 27v1.53l6.13 2.45a.94.94 0 0 0 .37.07 1 1 0 0 0 1-1V24.1A13.91 13.91 0 0 1 17 27z" fill="#d94645" opacity="1" data-original="#7738c8" class=""></path></g></g></svg>